<svg width="1214" height="1081" viewBox="0 0 1214 1081" fill="none" xmlns="http://www.w3.org/2000/svg">
<circle cx="607" cy="454" r="454" fill="#00256C"/>
<line y1="1066" x2="1214" y2="1066" stroke="#00256C" stroke-width="30"/>
<circle cx="607" cy="454" r="454" fill="#00256C"/>
<line y1="1066" x2="1214" y2="1066" stroke="#00256C" stroke-width="30"/>
<path d="M736.1 627.3C741.9 627.3 746.5 629 749.9 632.4C753.3 635.8 755 640.2 755 645.6V678H468.2V659.7C468.2 655.9 469 652 470.6 648C472.2 644 474.7 640.3 478.1 636.9L615.8 498.6C627.2 487 637.6 475.9 647 465.3C656.4 454.5 664.4 443.7 671 432.9C677.6 422.1 682.7 411.2 686.3 400.2C689.9 389 691.7 377.1 691.7 364.5C691.7 351.9 689.7 340.9 685.7 331.5C681.7 321.9 676.2 314 669.2 307.8C662.4 301.6 654.3 297 644.9 294C635.5 290.8 625.4 289.2 614.6 289.2C603.6 289.2 593.5 290.8 584.3 294C575.1 297.2 566.9 301.7 559.7 307.5C552.7 313.1 546.8 319.8 542 327.6C537.2 335.4 533.8 344 531.8 353.4C529.4 360.4 526.1 365.1 521.9 367.5C517.9 369.7 512.2 370.3 504.8 369.3L476.9 364.5C479.7 344.9 485.1 327.6 493.1 312.6C501.3 297.4 511.5 284.7 523.7 274.5C536.1 264.3 550.2 256.6 566 251.4C581.8 246 598.9 243.3 617.3 243.3C635.5 243.3 652.5 246 668.3 251.4C684.1 256.8 697.8 264.7 709.4 275.1C721 285.3 730.1 297.8 736.7 312.6C743.3 327.4 746.6 344.2 746.6 363C746.6 379 744.2 393.9 739.4 407.7C734.6 421.3 728.1 434.3 719.9 446.7C711.7 459.1 702.2 471.2 691.4 483C680.8 494.8 669.5 506.7 657.5 518.7L544.1 634.5C552.1 632.3 560.2 630.6 568.4 629.4C576.6 628 584.5 627.3 592.1 627.3H736.1Z" fill="white"/>
</svg>
