<svg width="1214" height="1081" viewBox="0 0 1214 1081" fill="none" xmlns="http://www.w3.org/2000/svg">
<circle cx="607" cy="454" r="454" fill="#00256C"/>
<line y1="1066" x2="1214" y2="1066" stroke="#00256C" stroke-width="30"/>
<circle cx="607" cy="454" r="454" fill="#00256C"/>
<line y1="1066" x2="1214" y2="1066" stroke="#00256C" stroke-width="30"/>
<path d="M742.4 618.2V659H512V618.2H604.1V325.1C604.1 316.3 604.4 307.4 605 298.4L528.5 364.1C525.9 366.3 523.3 367.7 520.7 368.3C518.1 368.7 515.7 368.7 513.5 368.3C511.3 367.9 509.2 367.1 507.2 365.9C505.4 364.7 504 363.4 503 362L486.2 338.9L614.3 228.2H657.8V618.2H742.4Z" fill="white"/>
</svg>
