<svg width="1214" height="1105" viewBox="0 0 1214 1105" fill="none" xmlns="http://www.w3.org/2000/svg">
<path d="M6 12.0001L10.243 16.2431L18.727 7.75708" stroke="white" stroke-width="2" stroke-linecap="round" stroke-linejoin="round"/>
<circle cx="607" cy="454" r="451" fill="white" stroke="#00256C" stroke-width="6"/>
<line y1="1076" x2="1214" y2="1076" stroke="#F3F4F8" stroke-width="10"/>
<path fill-rule="evenodd" clip-rule="evenodd" d="M846.015 290.782C853.049 297.68 857 307.035 857 316.789C857 326.542 853.049 335.897 846.015 342.795L564.786 618.505C561.07 622.149 556.658 625.04 551.801 627.012C546.945 628.985 541.74 630 536.484 630C531.227 630 526.022 628.985 521.166 627.012C516.309 625.04 511.897 622.149 508.181 618.505L368.455 481.545C364.871 478.152 362.013 474.093 360.046 469.605C358.08 465.117 357.045 460.29 357.001 455.406C356.958 450.522 357.907 445.678 359.794 441.158C361.681 436.637 364.467 432.53 367.989 429.076C371.512 425.622 375.702 422.891 380.313 421.042C384.924 419.192 389.865 418.261 394.846 418.304C399.828 418.346 404.752 419.361 409.329 421.289C413.907 423.217 418.047 426.019 421.508 429.532L536.471 542.239L792.936 290.782C796.42 287.364 800.557 284.652 805.111 282.802C809.665 280.952 814.546 280 819.475 280C824.404 280 829.285 280.952 833.839 282.802C838.393 284.652 842.53 287.364 846.015 290.782Z" fill="#00256C"/>
</svg>
