<svg width="908" height="908" viewBox="0 0 908 908" fill="none" xmlns="http://www.w3.org/2000/svg">
<circle cx="454" cy="454" r="454" fill="#00256C"/>
<path d="M908 454C908 704.737 704.737 908 454 908C203.263 908 0 704.737 0 454C0 203.263 203.263 0 454 0C704.737 0 908 203.263 908 454Z" fill="#F5F9FF"/>
<path d="M464.614 677.966C436.489 677.966 411.418 673.136 389.401 663.477C367.526 653.818 350.125 640.395 337.199 623.207C324.415 605.878 317.455 585.778 316.318 562.909H370.011C371.148 576.972 375.977 589.116 384.5 599.344C393.023 609.429 404.173 617.241 417.952 622.781C431.73 628.321 447 631.091 463.761 631.091C482.511 631.091 499.131 627.824 513.619 621.29C528.108 614.756 539.472 605.665 547.71 594.017C555.949 582.369 560.068 568.875 560.068 553.534C560.068 537.483 556.091 523.349 548.136 511.134C540.182 498.776 528.534 489.116 513.193 482.156C497.852 475.196 479.102 471.716 456.943 471.716H422V424.841H456.943C474.273 424.841 489.472 421.716 502.54 415.466C515.75 409.216 526.048 400.409 533.435 389.045C540.963 377.682 544.727 364.33 544.727 348.989C544.727 334.216 541.46 321.361 534.926 310.423C528.392 299.486 519.159 290.963 507.227 284.855C495.438 278.747 481.517 275.693 465.466 275.693C450.409 275.693 436.205 278.463 422.852 284.003C409.642 289.401 398.847 297.284 390.466 307.653C382.085 317.881 377.54 330.239 376.83 344.727H325.693C326.545 321.858 333.435 301.83 346.361 284.642C359.287 267.312 376.19 253.818 397.071 244.159C418.094 234.5 441.176 229.67 466.318 229.67C493.307 229.67 516.46 235.139 535.778 246.077C555.097 256.872 569.94 271.148 580.31 288.903C590.679 306.659 595.864 325.835 595.864 346.432C595.864 371.006 589.401 391.957 576.474 409.287C563.69 426.616 546.29 438.619 524.273 445.295V448.705C551.83 453.25 573.349 464.969 588.832 483.861C604.315 502.611 612.057 525.835 612.057 553.534C612.057 577.256 605.594 598.562 592.668 617.455C579.884 636.205 562.412 650.977 540.253 661.773C518.094 672.568 492.881 677.966 464.614 677.966Z" fill="#00256C"/>
</svg>
