<svg width="1214" height="1081" viewBox="0 0 1214 1081" fill="none" xmlns="http://www.w3.org/2000/svg">
<circle cx="607" cy="454" r="454" fill="#00256C"/>
<line y1="1066" x2="1214" y2="1066" stroke="#00256C" stroke-width="30"/>
<circle cx="607" cy="454" r="454" fill="#00256C"/>
<line y1="1066" x2="1214" y2="1066" stroke="#00256C" stroke-width="30"/>
<path d="M617.614 677.966C589.489 677.966 564.418 673.136 542.401 663.477C520.526 653.818 503.125 640.395 490.199 623.207C477.415 605.878 470.455 585.778 469.318 562.909H523.011C524.148 576.972 528.977 589.116 537.5 599.344C546.023 609.429 557.173 617.241 570.952 622.781C584.73 628.321 600 631.091 616.761 631.091C635.511 631.091 652.131 627.824 666.619 621.29C681.108 614.756 692.472 605.665 700.71 594.017C708.949 582.369 713.068 568.875 713.068 553.534C713.068 537.483 709.091 523.349 701.136 511.134C693.182 498.776 681.534 489.116 666.193 482.156C650.852 475.196 632.102 471.716 609.943 471.716H575V424.841H609.943C627.273 424.841 642.472 421.716 655.54 415.466C668.75 409.216 679.048 400.409 686.435 389.045C693.963 377.682 697.727 364.33 697.727 348.989C697.727 334.216 694.46 321.361 687.926 310.423C681.392 299.486 672.159 290.963 660.227 284.855C648.438 278.747 634.517 275.693 618.466 275.693C603.409 275.693 589.205 278.463 575.852 284.003C562.642 289.401 551.847 297.284 543.466 307.653C535.085 317.881 530.54 330.239 529.83 344.727H478.693C479.545 321.858 486.435 301.83 499.361 284.642C512.287 267.312 529.19 253.818 550.071 244.159C571.094 234.5 594.176 229.67 619.318 229.67C646.307 229.67 669.46 235.139 688.778 246.077C708.097 256.872 722.94 271.148 733.31 288.903C743.679 306.659 748.864 325.835 748.864 346.432C748.864 371.006 742.401 391.957 729.474 409.287C716.69 426.616 699.29 438.619 677.273 445.295V448.705C704.83 453.25 726.349 464.969 741.832 483.861C757.315 502.611 765.057 525.835 765.057 553.534C765.057 577.256 758.594 598.562 745.668 617.455C732.884 636.205 715.412 650.977 693.253 661.773C671.094 672.568 645.881 677.966 617.614 677.966Z" fill="white"/>
</svg>
