<svg width="908" height="908" viewBox="0 0 908 908" fill="none" xmlns="http://www.w3.org/2000/svg">
<circle cx="454" cy="454" r="454" fill="#00256C"/>
<path d="M908 454C908 704.737 704.737 908 454 908C203.263 908 0 704.737 0 454C0 203.263 203.263 0 454 0C704.737 0 908 203.263 908 454Z" fill="#F5F9FF"/>
<path d="M317.17 672V633.648L461.205 475.977C478.108 457.511 492.028 441.46 502.966 427.824C513.903 414.045 522 401.119 527.256 389.045C532.653 376.83 535.352 364.045 535.352 350.693C535.352 335.352 531.659 322.071 524.273 310.849C517.028 299.628 507.085 290.963 494.443 284.855C481.801 278.747 467.597 275.693 451.83 275.693C435.068 275.693 420.438 279.173 407.938 286.134C395.58 292.952 385.991 302.54 379.173 314.898C372.497 327.256 369.159 341.744 369.159 358.364H318.875C318.875 332.795 324.77 310.352 336.56 291.034C348.349 271.716 364.401 256.659 384.713 245.864C405.168 235.068 428.108 229.67 453.534 229.67C479.102 229.67 501.759 235.068 521.503 245.864C541.247 256.659 556.73 271.219 567.952 289.543C579.173 307.866 584.784 328.25 584.784 350.693C584.784 366.744 581.872 382.44 576.048 397.781C570.366 412.98 560.423 429.955 546.219 448.705C532.156 467.312 512.625 490.04 487.625 516.886L389.614 621.716V625.125H592.455V672H317.17Z" fill="#00256C"/>
</svg>
